<svg width="64" height="64" viewBox="0 0 64 64" fill="none" xmlns="http://www.w3.org/2000/svg">
  <defs>
    <linearGradient id="bg" x1="8" y1="8" x2="56" y2="56" gradientUnits="userSpaceOnUse">
      <stop stop-color="#6D5DF6"/>
      <stop offset="1" stop-color="#2F80FF"/>
    </linearGradient>
    <linearGradient id="stroke" x1="18" y1="16" x2="47" y2="49" gradientUnits="userSpaceOnUse">
      <stop stop-color="#F8FAFC"/>
      <stop offset="1" stop-color="#DDEAFE"/>
    </linearGradient>
  </defs>
  <rect x="6" y="6" width="52" height="52" rx="16" fill="url(#bg)"/>
  <path d="M25.6 19C19.1935 19 14 24.1935 14 30.6C14 37.0065 19.1935 42.2 25.6 42.2C32.0065 42.2 37.2 37.0065 37.2 30.6C37.2 24.1935 32.0065 19 25.6 19ZM25.6 24.1C29.1898 24.1 32.1 27.0101 32.1 30.6C32.1 34.1899 29.1898 37.1 25.6 37.1C22.0101 37.1 19.1 34.1899 19.1 30.6C19.1 27.0101 22.0101 24.1 25.6 24.1Z" fill="url(#stroke)"/>
  <path d="M34.2 39.2L40.8 45.8" stroke="url(#stroke)" stroke-width="4.2" stroke-linecap="round"/>
  <path d="M39.8 18L48 42.4H42.9L41.2 37.2H33.4L31.7 42.4H26.8L35 18H39.8ZM37.3 24.9L34.9 32.4H39.7L37.3 24.9Z" fill="url(#stroke)"/>
</svg>
